<svg width="69" height="25" viewBox="0 0 69 25" fill="none" xmlns="http://www.w3.org/2000/svg">
<path d="M11.3973 13.1111L15.7951 14.4122C15.5002 15.6171 15.035 16.6262 14.3998 17.432C13.7645 18.2414 12.9779 18.8513 12.0364 19.2616C11.0948 19.6719 9.89606 19.8789 8.4402 19.8789C6.67426 19.8789 5.23353 19.6275 4.11422 19.1285C2.99491 18.6295 2.03064 17.7462 1.21763 16.4821C0.404615 15.218 0 13.6027 0 11.6326C0 9.00835 0.714694 6.99022 2.14408 5.57827C3.57347 4.16633 5.59655 3.46405 8.20953 3.46405C10.2553 3.46405 11.8624 3.86694 13.0347 4.6764C14.2069 5.48587 15.0766 6.72779 15.6439 8.40217L11.212 9.36688C11.057 8.88267 10.8944 8.52784 10.7242 8.30607C10.4444 7.93275 10.1003 7.64075 9.69564 7.44116C9.29102 7.23787 8.83347 7.13807 8.33432 7.13807C7.1961 7.13807 6.32637 7.58531 5.72133 8.47979C5.26378 9.14141 5.03311 10.1837 5.03311 11.6068C5.03311 13.3662 5.30538 14.5711 5.85369 15.2253C6.402 15.8759 7.16963 16.2048 8.15659 16.2048C9.14355 16.2048 9.84312 15.9424 10.3347 15.4139C10.8263 14.889 11.1817 14.1202 11.4049 13.1185L11.3973 13.1111Z" fill="#66021F"/>
<path d="M16.1953 3.73389H20.7028V9.58127C21.3154 8.96031 21.9242 8.51676 22.5292 8.25064C23.1342 7.98451 23.8527 7.85145 24.6771 7.85145C25.9023 7.85145 26.8703 8.21737 27.5737 8.94552C28.277 9.67367 28.6325 10.7936 28.6325 12.3017V19.6127H24.1023V13.2886C24.1023 12.5678 23.9662 12.0577 23.6939 11.7546C23.4216 11.4552 23.0359 11.3037 22.5406 11.3037C21.9922 11.3037 21.5498 11.507 21.2095 11.9099C20.8692 12.3128 20.699 13.0409 20.699 14.0869V19.609H16.1915V3.73389H16.1953Z" fill="#66021F"/>
<path d="M42.9425 7.96265H53.8558V10.5389L47.9189 16.4528H54.2226V19.4615H42.5001V16.6044L48.142 10.975H42.9463L42.9425 7.96265Z" fill="#66021F"/>
<path d="M54.3001 7.96866H59.0572L61.4849 15.6235L63.7386 7.96866H68.1818L63.5155 20.2548C62.9823 21.6557 62.4416 22.6019 61.8895 23.0935C61.1067 23.7884 59.9155 24.1321 58.3122 24.1321C57.6618 24.1321 56.6597 24.0471 55.2984 23.8734L54.9429 20.7982C55.5933 21.0014 56.3156 21.1012 57.1135 21.1012C57.6429 21.1012 58.074 20.983 58.403 20.7427C58.732 20.5025 59.008 20.0774 59.2387 19.4638L54.3001 7.96497V7.96866Z" fill="#66021F"/>
<path d="M37.5457 9.88728C39.5357 9.63257 40.8662 7.31598 40.5175 4.71303C40.1688 2.11007 38.2729 0.206426 36.2829 0.461126C34.2929 0.715827 32.9624 3.03242 33.3111 5.63538C33.6598 8.23834 35.5557 10.142 37.5457 9.88728Z" fill="white"/>
<path d="M37.4561 9.20773C38.6405 9.05613 39.4168 7.55985 39.1898 5.8657C38.9628 4.17155 37.8187 2.92107 36.6342 3.07267C35.4497 3.22427 34.6735 4.72055 34.9004 6.4147C35.1274 8.10885 36.2716 9.35933 37.4561 9.20773Z" fill="#66021F"/>
<path d="M33.5225 10.6481C35.4266 10.0279 36.2818 7.5062 35.4327 5.01566C34.5836 2.52512 32.3518 1.00892 30.4477 1.62911C28.5437 2.24931 27.6884 4.77105 28.5375 7.26159C29.3866 9.75212 31.6185 11.2683 33.5225 10.6481Z" fill="white"/>
<path d="M32.4812 10.4017C33.88 9.94606 34.5462 8.20455 33.9691 6.51192C33.3921 4.81928 31.7903 3.81649 30.3915 4.27212C28.9927 4.72775 28.3265 6.46926 28.9036 8.16189C29.4806 9.85453 31.0824 10.8573 32.4812 10.4017Z" fill="#66021F"/>
<path d="M28.8843 14.3551C28.8843 12.5994 29.4893 11.1542 30.6994 10.0195C31.9094 8.88107 33.5468 8.31555 35.6077 8.31555C37.9635 8.31555 39.7446 8.98456 40.9471 10.3189C41.9152 11.3945 42.3992 12.7177 42.3992 14.2923C42.3992 16.0628 41.7979 17.5117 40.5992 18.639C39.4005 19.7701 37.7404 20.3319 35.619 20.3319C33.7283 20.3319 32.2006 19.8625 31.0321 18.9236C29.599 17.763 28.8843 16.2365 28.8843 14.3551ZM33.4031 14.344C33.4031 15.3679 33.6149 16.1256 34.0384 16.6172C34.4619 17.1088 34.9951 17.3527 35.6379 17.3527C36.2808 17.3527 36.8215 17.1125 37.2375 16.6283C37.6535 16.1441 37.8652 15.3679 37.8652 14.2997C37.8652 13.3017 37.6535 12.5625 37.2337 12.0746C36.814 11.5867 36.2921 11.3427 35.672 11.3427C35.014 11.3427 34.4733 11.5904 34.0422 12.0857C33.6149 12.581 33.3993 13.3313 33.3993 14.344H33.4031Z" fill="#66021F"/>
</svg>
