<svg width="24" height="24" viewBox="0 0 24 24" fill="none" xmlns="http://www.w3.org/2000/svg">
<path d="M12.6387 21.9014C13.1527 22.6066 14.0961 22.8454 14.8838 22.4697C16.3781 21.7571 16.8605 19.8645 15.8896 18.5234L14.3057 16.3359C14.1445 16.1133 14.1293 15.8168 14.2656 15.5781C14.402 15.3395 14.6649 15.2028 14.9385 15.2285L15.0703 15.2402C17.8755 15.5048 20.2998 13.2982 20.2998 10.4805C20.2996 7.84037 18.1596 5.70038 15.5195 5.7002H9C8.28203 5.7002 7.7002 6.28203 7.7002 7V15.126L12.6387 21.9014Z" stroke="#4F7BD4" stroke-width="1.4" stroke-linecap="round" stroke-linejoin="round"/>
<path d="M8.3871 6.17613H4V15.5879H7.83871" stroke="#4F7BD4" stroke-width="1.4"/>
<path d="M4 6.17613H8.3871L7.83871 15.5879H4V6.17613Z" fill="#4F7BD4" fill-opacity="0.3"/>
</svg>
