<svg width="24" height="24" viewBox="0 0 24 24" fill="none" xmlns="http://www.w3.org/2000/svg">
<path d="M12.6387 2.09863C13.1527 1.39344 14.0961 1.15465 14.8838 1.53027C16.3781 2.24295 16.8605 4.13554 15.8896 5.47656L14.3057 7.66406C14.1445 7.8867 14.1293 8.18321 14.2656 8.42188C14.402 8.66049 14.6649 8.79721 14.9385 8.77148L15.0703 8.75977C17.8755 8.49519 20.2998 10.7018 20.2998 13.5195C20.2996 16.1596 18.1596 18.2996 15.5195 18.2998H9C8.28203 18.2998 7.7002 17.718 7.7002 17V8.87402L12.6387 2.09863Z" stroke="#EF4444" stroke-width="1.4" stroke-linecap="round" stroke-linejoin="round"/>
<path d="M8.3871 17.8239H4V8.41211H7.83871" stroke="#EF4444" stroke-width="1.4"/>
<path d="M4 17.8239H8.3871L7.83871 8.41211H4V17.8239Z" fill="#EF4444" fill-opacity="0.3"/>
</svg>
