<svg width="27" height="27" viewBox="0 0 27 27" fill="none" xmlns="http://www.w3.org/2000/svg">
<path d="M17.8299 7.54065C19.4099 8.85008 20.4771 10.6751 20.8435 12.6942C21.2098 14.7134 20.8518 16.797 19.8325 18.578C18.8133 20.3591 17.1981 21.7233 15.2717 22.4303C13.3453 23.1373 11.2311 23.1417 9.30172 22.4428C7.37235 21.7439 5.75149 20.3864 4.7248 18.6097C3.69811 16.8329 3.33138 14.7508 3.68929 12.7302C4.04719 10.7095 5.10673 8.88003 6.68123 7.56399C8.25574 6.24794 10.2442 5.52981 12.2963 5.53608" stroke="#575757" stroke-width="1.35549"/>
<path d="M20.8342 6.68981L17.171 7.03282C17.0646 7.04279 16.9863 7.13719 16.9963 7.24367L17.3393 10.9068" stroke="#575757" stroke-width="1.35549" stroke-linecap="round"/>
</svg>
