<svg width="48" height="48" viewBox="0 0 48 48" fill="none" xmlns="http://www.w3.org/2000/svg">
<g clip-path="url(#clip0_1084_20004)">
<g filter="url(#filter0_d_1084_20004)">
<circle cx="24.0002" cy="24" r="20" fill="#800025"/>
</g>
<g clip-path="url(#clip1_1084_20004)">
<path d="M24.0527 13.1729C24.0634 13.1791 24.0764 13.1905 24.0889 13.2148L27.0889 19.0918C27.3068 19.5188 27.7159 19.8163 28.1895 19.8916L34.7061 20.9277C34.7326 20.932 34.7467 20.9411 34.7559 20.9492C34.7671 20.9592 34.7785 20.9755 34.7852 20.9961C34.7917 21.0163 34.7922 21.0352 34.7891 21.0498C34.7864 21.0619 34.7801 21.0783 34.7607 21.0977L30.0977 25.7666C29.7591 26.1058 29.6031 26.5862 29.6777 27.0596L30.7051 33.5781C30.7093 33.605 30.7051 33.6215 30.7002 33.6328C30.6941 33.6465 30.6823 33.6613 30.665 33.6738C30.6477 33.6864 30.6301 33.6928 30.6152 33.6943C30.603 33.6956 30.5858 33.695 30.5615 33.6826L24.6797 30.6904C24.2526 30.4733 23.7474 30.4733 23.3203 30.6904L17.4385 33.6826C17.4142 33.695 17.397 33.6956 17.3848 33.6943C17.3699 33.6928 17.3523 33.6864 17.335 33.6738C17.3177 33.6613 17.3059 33.6465 17.2998 33.6328C17.2949 33.6215 17.2907 33.605 17.2949 33.5781L18.3223 27.0596C18.3969 26.5862 18.2409 26.1058 17.9023 25.7666L13.2393 21.0977C13.2199 21.0783 13.2136 21.0619 13.2109 21.0498C13.2078 21.0352 13.2083 21.0163 13.2148 20.9961C13.2215 20.9755 13.2329 20.9592 13.2441 20.9492C13.2533 20.9411 13.2674 20.932 13.2939 20.9277L19.8105 19.8916C20.2841 19.8163 20.6932 19.5189 20.9111 19.0918L23.9111 13.2148C23.9236 13.1905 23.9366 13.1791 23.9473 13.1729C23.9603 13.1653 23.9786 13.1602 24 13.1602C24.0214 13.1602 24.0397 13.1653 24.0527 13.1729Z" fill="white" stroke="white" stroke-width="1.4"/>
<circle cx="20" cy="24.5" r="1" fill="#800025"/>
<circle cx="24" cy="24.5" r="1" fill="#800025"/>
<circle cx="28" cy="24.5" r="1" fill="#800025"/>
</g>
</g>
<defs>
<filter id="filter0_d_1084_20004" x="0.000244141" y="0" width="48" height="48" filterUnits="userSpaceOnUse" color-interpolation-filters="sRGB">
<feFlood flood-opacity="0" result="BackgroundImageFix"/>
<feColorMatrix in="SourceAlpha" type="matrix" values="0 0 0 0 0 0 0 0 0 0 0 0 0 0 0 0 0 0 127 0" result="hardAlpha"/>
<feOffset/>
<feGaussianBlur stdDeviation="2"/>
<feComposite in2="hardAlpha" operator="out"/>
<feColorMatrix type="matrix" values="0 0 0 0 0 0 0 0 0 0 0 0 0 0 0 0 0 0 0.16 0"/>
<feBlend mode="normal" in2="BackgroundImageFix" result="effect1_dropShadow_1084_20004"/>
<feBlend mode="normal" in="SourceGraphic" in2="effect1_dropShadow_1084_20004" result="shape"/>
</filter>
<clipPath id="clip0_1084_20004">
<rect width="48" height="48" fill="white"/>
</clipPath>
<clipPath id="clip1_1084_20004">
<rect width="24" height="24" fill="white" transform="translate(12 12)"/>
</clipPath>
</defs>
</svg>
