<svg width="40" height="40" viewBox="0 0 40 40" fill="none" xmlns="http://www.w3.org/2000/svg">
<path d="M20 1.01953C30.7757 1.01953 39.5 9.63982 39.5 20.2598C39.5 30.8797 30.7757 39.5 20 39.5C9.22426 39.5 0.5 30.8797 0.5 20.2598C0.500014 9.63982 9.22427 1.01953 20 1.01953Z" fill="#F9F6ED" stroke="#F9F9F9"/>
<mask id="mask0_3145_47384" style="mask-type:alpha" maskUnits="userSpaceOnUse" x="0" y="-1" width="40" height="40">
<ellipse cx="20" cy="19.2403" rx="20" ry="19.7403" fill="#DADADA"/>
</mask>
<g mask="url(#mask0_3145_47384)">
<circle cx="20.0004" cy="18.7905" r="7.21136" fill="#D6C9AC" stroke="#D6C9AC" stroke-width="2.10526"/>
<path d="M20.0008 29.6104H18.8115C16.9819 29.6104 16.0671 29.6104 15.3048 29.7519C11.8795 30.3882 9.19968 33.068 8.56347 36.4933C8.42188 37.2556 8.42188 38.1704 8.42188 40H31.5798C31.5798 38.1704 31.5798 37.2556 31.4382 36.4933C30.802 33.068 28.1221 30.3882 24.6968 29.7519C23.9345 29.6104 23.0197 29.6104 21.1902 29.6104H20.0008Z" fill="#D6C9AC" stroke="#D6C9AC" stroke-width="1.47362" stroke-linejoin="round"/>
</g>
</svg>
