<svg width="48" height="48" viewBox="0 0 48 48" fill="none" xmlns="http://www.w3.org/2000/svg">
<path d="M32.5 18C32.5 26.5604 27.1797 35.5 20 35.5C12.8203 35.5 7.5 26.5604 7.5 18C7.5 10.5 12.8203 5.5 20 5.5C27.1797 5.5 32 10.5 32.5 18Z" fill="white"/>
<path d="M12 18C13 19.3333 15.6 21.2 18 18" stroke="#D29419" stroke-width="1.4"/>
<path d="M16 26C17.5 27.5092 21.4 29.6222 25 26" stroke="#D29419" stroke-width="1.4"/>
<path d="M22.5 18C23.5 19.3333 26.1 21.2 28.5 18" stroke="#D29419" stroke-width="1.4"/>
<path d="M7 20.5C8 25.5 11 35.5 20 35.5C29 35.5 31.3333 25.5 33 20.5" stroke="#D29419" stroke-width="1.2"/>
<path d="M7 17C7.92857 11 11.6207 5 20 5C28.3793 5 32.0714 11 33 17" stroke="#D29419" stroke-width="1.2"/>
<path d="M37.918 24C41.2766 24 43.9998 26.6585 44 29.9375C44 33.2165 43.067 35.0507 39.1348 38.25C35.4858 41.2187 35.4854 41.2188 33.0527 43C33.0004 43 32.9513 42.9804 32.9033 42.9453C32.8891 42.9636 32.8758 42.9826 32.8613 43C30.4477 41.2188 30.4476 41.2187 26.8271 38.25C22.9254 35.0506 22 33.2166 22 29.9375C22 26.6584 24.7017 24 28.0342 24C30.0667 24 31.8627 24.9904 32.9561 26.5059C34.0579 24.9901 35.8692 24 37.918 24Z" fill="#66021F"/>
<path d="M34.5 31.5H37V34.5H34.5V37H31.5V34.5H29V31.5H31.5V29H34.5V31.5Z" fill="white"/>
</svg>
