<svg width="48" height="48" viewBox="0 0 48 48" fill="none" xmlns="http://www.w3.org/2000/svg">
<rect width="48" height="48" fill="white"/>
<path d="M31.5722 13C33.0641 13 34.432 13.8303 35.1206 15.1538L38.1624 21H39.174C41.4086 21.0001 42.958 22.9746 41.3147 24.4717C40.9622 24.7929 40.5796 24.9999 40.1856 25V35C40.1856 36.1046 39.2901 37 38.1856 37H37.9855C38.0977 37.3131 38.1624 37.6489 38.1624 38C38.1624 39.6568 36.8035 40.9999 35.1276 41C33.4515 41 32.0928 39.6569 32.0928 38C32.0928 37.649 32.1566 37.3131 32.2686 37H15.7304C15.8425 37.3131 15.9073 37.6489 15.9073 38C15.9073 39.6568 14.5484 40.9999 12.8725 41C11.1964 41 9.83769 39.6569 9.83769 38C9.83769 37.649 9.90146 37.3131 10.0135 37H9.8145C8.70993 37 7.8145 36.1046 7.8145 35V25C7.42044 25 7.0379 24.7928 6.68535 24.4717C5.04201 22.9746 6.59134 21 8.8261 21H9.83769L12.8794 15.1538C13.568 13.8303 14.9359 13 16.4279 13H31.5722Z" fill="#66021F"/>
<path d="M31.5722 13C33.0641 13 34.432 13.8303 35.1206 15.1538L38.1624 21H39.174C41.4086 21.0001 42.958 22.9746 41.3147 24.4717C40.9622 24.7929 40.5796 24.9999 40.1856 25V35C40.1856 36.1046 39.2901 37 38.1856 37H37.9855C36.3095 37 32.2686 37 32.2686 37H15.7304C14.0544 37 10.0135 37 10.0135 37H9.8145C8.70993 37 7.8145 36.1046 7.8145 35V25C7.42044 25 7.0379 24.7928 6.68535 24.4717C5.04201 22.9746 6.59134 21 8.8261 21H9.83769L12.8794 15.1538C13.568 13.8303 14.9359 13 16.4279 13H31.5722Z" fill="#66021F"/>
<path d="M31.0719 14.2924H16.9281C15.8159 14.2924 14.795 14.9077 14.2755 15.8911L11.55 21.0505C10.8464 22.3824 11.8121 23.9847 13.3184 23.9847H34.6816C36.1879 23.9847 37.1536 22.3824 36.45 21.0505L33.7245 15.8911C33.2051 14.9077 32.1841 14.2924 31.0719 14.2924Z" fill="white"/>
<circle cx="14.4091" cy="31.4091" r="2.40906" fill="#D29419"/>
<circle cx="33.5909" cy="31.5909" r="2.40906" fill="#D29419"/>
</svg>
