<svg width="48" height="48" viewBox="0 0 48 48" fill="none" xmlns="http://www.w3.org/2000/svg">
<path d="M20 11.5973C20.7778 11.014 24.3167 9.26373 25.25 9.26373M25.25 9.26373C26.1833 9.26373 29.7222 11.014 30.5 11.5973M25.25 9.26373C27.5833 5.18029 24.6667 2.26386 22.3333 5.18053" stroke="#D29419" stroke-width="1.2"/>
<path d="M30.5 9.84729C24.9 14.9806 21.5556 11.9862 20.5833 9.84729C12.4167 10.4306 9.5 16.25 6 20.9167C6 20.9167 10.0833 26.75 12.4167 26.75L7.75 39.5833C7.75 39.5833 16.2455 42.8407 21.75 43.0833C27.444 43.3343 36.3333 41.3333 36.3333 41.3333C34.5833 37.25 33.4167 27.9167 33.4167 27.9167C35.2481 27.9167 39.0262 23.6389 41 22.0833C37.5 15.6667 35.1667 11.5974 30.5 9.84729Z" fill="#66021F"/>
<path d="M12.4167 26.75C10.0833 26.75 6 20.9167 6 20.9167C9.5 16.25 12.4167 10.4306 20.5833 9.84729C21.5556 11.9862 24.9 14.9806 30.5 9.84729C35.1667 11.5974 37.5 15.6667 41 22.0833C39.0262 23.6389 35.2481 27.9167 33.4167 27.9167M12.4167 26.75C12.4167 26.75 14.1667 22.0833 15.3333 18M12.4167 26.75L7.75 39.5833C7.75 39.5833 16.2455 42.8407 21.75 43.0833C27.444 43.3343 36.3333 41.3333 36.3333 41.3333C34.5833 37.25 33.4167 27.9167 33.4167 27.9167M32.25 19.1667C32.8333 22.0833 33.4167 27.9167 33.4167 27.9167" stroke="white" stroke-width="1.2" stroke-linecap="square"/>
<path d="M9.5 34.5C14.1667 36.8333 25.8 40.4 35 36" stroke="#D29419" stroke-width="1.2"/>
<path d="M12.4167 26.75C10.0833 26.75 6 20.9167 6 20.9167C9.5 16.25 12.4167 10.4306 20.5833 9.84729C21.5556 11.9862 24.9 14.9806 30.5 9.84729C35.1667 11.5974 37.5 15.6667 41 22.0833C39.0262 23.6389 35.2481 27.9167 33.4167 27.9167M12.4167 26.75C12.4167 26.75 14.1667 22.0833 15.3333 18M12.4167 26.75L7.75 39.5833C7.75 39.5833 16.2455 42.8407 21.75 43.0833C27.444 43.3343 36.3333 41.3333 36.3333 41.3333C34.5833 37.25 33.4167 27.9167 33.4167 27.9167M32.25 19.1667C32.8333 22.0833 33.4167 27.9167 33.4167 27.9167" stroke="white" stroke-width="1.2" stroke-linecap="square"/>
</svg>
