<svg width="48" height="48" viewBox="0 0 48 48" fill="none" xmlns="http://www.w3.org/2000/svg">
<rect width="48" height="48" fill="white"/>
<path d="M5 20.1667L8.35897 13.5H16.641L20 20.1667C16.1026 23.2778 8.57265 23.2778 5 20.1667Z" fill="#D29419"/>
<path d="M15.6296 37C15.8567 37.0002 16.0641 37.1289 16.1657 37.332L17.4997 40H7.49969L8.83368 37.332C8.93531 37.1288 9.14353 37 9.37079 37H11.4997V15H13.4997V37H15.6296ZM16.2438 5C16.7143 5.00017 17.1207 5.32832 17.2204 5.78809L18.737 12.7881C18.872 13.4111 18.3979 13.9998 17.7604 14H7.23993C6.60235 14 6.12738 13.4112 6.26239 12.7881L7.77899 5.78809C7.8787 5.32813 8.28588 5 8.75653 5H16.2438Z" fill="#66021F"/>
<path d="M22 31.4737C22 29.8168 23.3431 28.4737 25 28.4737H38C39.6569 28.4737 41 29.8168 41 31.4737H22Z" fill="white"/>
<path d="M37 21C39.2091 21 41 22.7909 41 25V26.6846L41.2061 26.6895C43.3194 26.7967 45 28.5445 45 30.6846V32.1582C44.9999 34.2981 43.3193 36.0451 41.2061 36.1523L41 36.1582V39H22V36.1582L21.7939 36.1523C19.6807 36.0451 18.0001 34.2981 18 32.1582V30.6846C18 28.5445 19.6806 26.7967 21.7939 26.6895L22 26.6846V25C22 22.7909 23.7909 21 26 21H37ZM23 30.4736V31.4209H40V30.4736H23Z" fill="#66021F"/>
</svg>
