<svg width="37" height="36" viewBox="0 0 37 36" fill="none" xmlns="http://www.w3.org/2000/svg">
<path d="M36.5055 23.3944C35.9457 27.384 30.7552 28.5239 29.2285 26.8141C28.2107 25.6742 22.5113 24.3747 22.5113 28.5239C22.5113 33.6534 -1.91504 31.3736 0.120505 19.9748C1.24005 13.7054 9.04902 9.75144 18.5929 10.8557C25.4751 11.6519 37.7498 14.5264 36.5055 23.3944Z" fill="#66021F"/>
<path d="M5.99698 17.1757C4.04639 19.5769 8.37563 20.0504 9.24799 18.9766C11.1987 16.5754 7.49086 15.3367 5.99698 17.1757Z" fill="white"/>
<path d="M12.0375 14.0539C9.47385 15.7854 13.4792 17.4953 14.6257 16.721C17.1894 14.9895 14.0009 12.7278 12.0375 14.0539Z" fill="white"/>
<path d="M20.1308 14.0755C17.1749 14.9882 20.5113 17.7872 21.8332 17.3791C24.7892 16.4665 22.3946 13.3765 20.1308 14.0755Z" fill="white"/>
<path d="M6.5438 24.9952C9.63369 24.8437 7.09521 21.305 5.71335 21.3727C2.62343 21.5241 4.17738 25.1112 6.5438 24.9952Z" fill="white"/>
<path d="M30.2216 9.08649C29.7025 9.01134 29.18 9.19957 28.8277 9.58825L28.4826 9.96851C27.6848 10.8492 27.2678 12.0099 27.3225 13.1969L27.6163 19.5517C27.6176 19.5795 27.6168 19.6075 27.614 19.6352L26.1563 34.251L26.1081 34.7275L28.56 35.0824L28.6545 34.6205L31.6271 20.1737L33.6735 14.0058C34.0248 12.9473 33.97 11.7956 33.5206 10.7748L33.3039 10.2816C33.0849 9.78422 32.6248 9.43444 32.0869 9.35653L30.2216 9.08649Z" fill="#D29419" stroke="white"/>
<path d="M30.3625 9.05102C29.7874 8.96776 29.3046 8.57477 29.1064 8.02847L28.7743 7.11207C28.6222 6.69231 28.6547 6.22751 28.8647 5.8335L31.2418 1.37516C31.6781 0.556704 32.897 0.721447 33.1 1.6264L34.2154 6.60614C34.3124 7.03904 34.2222 7.49279 33.9674 7.85596L33.4314 8.62103C33.0899 9.10778 32.5031 9.36091 31.9147 9.27572L30.3625 9.05102Z" fill="#D29419" stroke="white"/>
</svg>
