<svg width="36" height="36" viewBox="0 0 36 36" fill="none" xmlns="http://www.w3.org/2000/svg">
<rect width="21" height="29.0769" rx="1" fill="#66021F"/>
<path fill-rule="evenodd" clip-rule="evenodd" d="M10.4997 9.29146C10.642 9.27837 10.7866 9.33984 10.872 9.46657C11.3729 10.2111 12.0627 10.7423 12.7847 11.3036C13.4862 11.8489 14.2352 12.4352 14.6936 13.2668C15.2169 14.2167 14.8717 15.5027 14.0578 16.1608C13.6325 16.5046 13.0716 16.6857 12.4369 16.5702C12.1067 16.51 11.7215 16.3829 11.3804 16.1608C11 17.5 11.8508 18.3268 12.048 18.6126C12.3039 18.9837 12.0454 19.4999 11.5835 19.5H9.49009C9.02778 19.4998 8.77258 18.9857 9.01998 18.6158L9.15486 18.4068C9.32716 18.1305 9.99998 17.5 9.69233 16.1608C9.32361 16.4151 8.91897 16.5052 8.5625 16.5702C7.92784 16.6856 7.3669 16.5046 6.9416 16.1608C6.12789 15.5027 5.78261 14.2166 6.30586 13.2668C6.76413 12.4352 7.51317 11.8489 8.21466 11.3036C8.93676 10.7423 9.62643 10.2112 10.1274 9.46657C10.2126 9.33987 10.3575 9.27859 10.4997 9.29146Z" fill="white"/>
<rect x="17.7771" y="16.4309" width="12.8" height="12.8" rx="1.4" transform="rotate(-21.3202 17.7771 16.4309)" fill="white" stroke="#D29419" stroke-width="1.2"/>
<circle cx="22.8281" cy="18.646" r="0.6" transform="rotate(-21.3202 22.8281 18.646)" fill="#D29419" stroke="#D29419" stroke-width="0.8"/>
<circle cx="24.646" cy="23.3038" r="0.6" transform="rotate(-21.3202 24.646 23.3038)" fill="#D29419" stroke="#D29419" stroke-width="0.8"/>
<circle cx="29.3039" cy="21.486" r="0.6" transform="rotate(-21.3202 29.3039 21.486)" fill="#D29419" stroke="#D29419" stroke-width="0.8"/>
<circle cx="27.486" cy="16.8281" r="0.6" transform="rotate(-21.3202 27.486 16.8281)" fill="#D29419" stroke="#D29419" stroke-width="0.8"/>
<rect x="13.6" y="22.6" width="12.8" height="12.8" rx="1.4" fill="white" stroke="#D29419" stroke-width="1.2"/>
<circle cx="17" cy="32" r="0.6" fill="#D29419" stroke="#D29419" stroke-width="0.8"/>
<circle cx="20" cy="29" r="0.6" fill="#D29419" stroke="#D29419" stroke-width="0.8"/>
<circle cx="23" cy="26" r="0.6" fill="#D29419" stroke="#D29419" stroke-width="0.8"/>
</svg>
