<svg width="48" height="48" viewBox="0 0 48 48" fill="none" xmlns="http://www.w3.org/2000/svg">
<path d="M43.34 31.4594C43.5173 29.2875 44.4389 20.0982 36.1971 23.4649C33.4334 22.9471 24.3949 22.9176 22.9887 27.6462C22.0748 30.7197 17.7138 27.3387 16.9601 34.8369C16.2147 42.2534 26.0886 39.1537 28.0546 41.829C28.095 41.884 28.1579 41.9194 28.2262 41.9194L32.3824 41.9194C34.0816 43.6714 37.4412 43.9147 42.489 40.5168C42.5359 40.4852 42.5683 40.4341 42.576 40.378C43.0724 36.7634 43.1932 33.2584 43.34 31.4594Z" fill="white"/>
<path d="M36.1972 23.4649C44.439 20.0982 43.5173 29.2875 43.3401 31.4594C43.1932 33.2584 43.0724 36.7634 42.576 40.378C42.5683 40.4341 42.5353 40.4856 42.4883 40.5172C34.8476 45.6603 31.0751 42.4601 31.0744 38.3135C31.0737 34.6647 34.2569 26.9842 36.1972 23.4649ZM36.1972 23.4649C33.4334 22.9471 24.3949 22.9176 22.9888 27.6462C22.0748 30.7197 17.7139 27.3387 16.9602 34.8369C16.2065 42.335 26.3072 39.0843 28.1166 41.9194" stroke="#D29419" stroke-width="1.2" stroke-linecap="round"/>
<circle cx="26.841" cy="28.6386" r="1.44766" transform="rotate(-10.7078 26.841 28.6386)" fill="#D29419"/>
<path d="M11.4143 6.17464C7.64633 8.54191 5.83687 14.5899 5.67957 16.0298C5.47726 17.8817 4.71842 22.3448 5.11108 25.8844C5.12222 25.9848 5.20745 26.0596 5.30847 26.0596H14.3191C14.3727 26.0596 14.4229 26.0381 14.4629 26.0024C16.2131 24.4406 23.179 26.613 23.179 20.4178C23.179 16.6566 21.6244 19.7909 20.6715 17.2835C19.1364 13.2437 18.791 13.2437 13.9001 12.6865C12.2944 11.5981 11.7341 11.0412 11.7088 6.34416C11.708 6.19124 11.5438 6.09329 11.4143 6.17464Z" fill="white"/>
<path d="M13.9001 12.6865C12.2944 11.5981 11.7341 11.0412 11.7088 6.34416C11.708 6.19124 11.5438 6.09329 11.4143 6.17464C7.64633 8.54191 5.83687 14.5899 5.67957 16.0298C5.47391 17.9124 4.69312 22.4934 5.13155 26.0596M13.9001 12.6865C18.791 13.2437 19.1364 13.2437 20.6715 17.2835C21.6244 19.7909 23.179 16.6566 23.179 20.4178C23.179 26.6864 16.047 24.3879 14.4029 26.0596M13.9001 12.6865C13.9001 12.6865 12.6725 12.6865 11.1599 13.2437" stroke="#D29419" stroke-width="1.2" stroke-linecap="round"/>
<circle cx="17.7268" cy="17.3465" r="1.11442" transform="rotate(-21.3202 17.7268 17.3465)" fill="#D29419"/>
<path d="M12.5224 18.5372L15.0298 19.791" stroke="#D29419" stroke-width="1.2" stroke-linecap="round"/>
<path d="M15.0298 22.2984H12.5223" stroke="#D29419" stroke-width="1.2" stroke-linecap="round"/>
<path d="M27.7406 7.2424C31.132 5.39094 31.4584 9.96047 29.9417 10.7885C26.5503 12.64 25.1432 8.66036 27.7406 7.2424Z" fill="#66021F"/>
<path d="M35.3151 7.38685C31.9114 5.73053 31.6171 10.3179 33.1393 11.0586C36.543 12.7151 37.9219 8.65536 35.3151 7.38685Z" fill="#66021F"/>
<path d="M39.2325 13.0566C38.6922 10.5832 35.5911 12.1432 35.8328 13.2494C36.3731 15.7227 39.6464 14.9508 39.2325 13.0566Z" fill="#66021F"/>
<path d="M24.2344 11.2018C21.5587 12.1207 24.0497 14.166 25.2464 13.7551C27.9221 12.8363 26.2836 10.4981 24.2344 11.2018Z" fill="#66021F"/>
<path d="M35.6641 17.7682C33.6042 20.7472 22.2011 18.604 27.897 12.7216C30.4917 10.042 33.0374 11.8149 34.1924 13.3385C34.2323 13.3911 34.2802 13.4374 34.3342 13.4757C36.3675 14.9196 36.4803 16.5877 35.6641 17.7682Z" fill="#66021F"/>
</svg>
